/* XPM */
static char *result[] = {
/* columns rows colors chars-per-pixel */
"64 64 5 1 ",
"  c black",
". c #7F6000",
"X c gray40",
"o c #FFF200",
"O c gray80",
/* pixels */
"XXXXXXXXXXXXXXXXXXXXXXXXXXXXXXXXXXXXXXXXXXXXXXXXXXXXXXXXXXXXXXXX",
"XOOOOOOOOOOOOOOOOOOOOOOOOOOOOOOXXOOOOOOOOOOOOOOOOOOOXXOOOOOOOOOX",
"XOOOOOOOOOOOOOOOOOOOOOOOOOOOOOOXXOOOOOOOOOOOOOOOOOOXXOOOOOOOOOOX",
"XOOOOOOOOOOOOOOOOOOOOOOOOOOOOOOXXOOOOOOOOOOOOOOOOOXXOOOOOOOOOOOX",
"XOOOOOOOOOOOOOOOOOOOOOOOOOOOOOOXXOOOOOOOOOOOOOOOOXXOOOOOOOOOOOOX",
"XOOOOOOOOOOOOOOOOOOOOOOOOOOOOOOXXOOOOOOOOOOOOOOOOXOOOOOOOOOOOOOX",
"XOOOOOOOOOOOOOOOOOOOOOOOOOOOOOOXXOOOOOOOOOOOOOOOXXOOOOOOOOOOOOOX",
"XOOOOOOOOOOOOOOOOOOOOOOOOOOOOOOXXOOOOOOOOOOOOOOOXOOOOOOOOOOOOOOX",
"XOOOOOOOOOOOOOOOOOOOOOOOOOOOOOOXXOOOOOOOOOOOOOOOXOOOOOOOOOOOOOOX",
"XXOOOOOOOOOOOOOOOOOOOOOOOOOOOOOXXOOOOOOOOOOOOOOOOOOOOOOOOOOOOOOX",
"XXXOOOOOOOOOOOOOOOOOOOOOOOOOOOOXXOOOOOOOOOOOOOOOOOOOOOOOOOOOOOOX",
"XOXOOOOOOOOOOOOOOOOOOOOOOOOOOOOXXOOOOOOOOOOOOOOOOOOOOOOOOOOOOOOX",
"XOXXOOOOOOOOOOOOOOOOOOOOOOOOOOOXXOOOOOOOOOOOOOOOOOOOOOOOOOOOOOOX",
"XOOXXXXXOOOOOOOOOOOOOOOOOOOOOOOXXOOOOOOOOOOOOOOOOOOOOOOOOOOOOOOX",
"XOOOOOOXOOOOOOOOOOOOOOOOOOOOOOOXXOOOOOOOOOOOOOOOoOoOOOOOOOOOOOOX",
"XOOOOOOOOOOOOOOOoOoOOOOOOOOOOoOoXOOOOOOOOOOOOOOOOoOOOOOOOOOOOOOX",
"XOOOOOOOOOOOOOOOOoOOOOOOOOOOOOoXXOOOOOOOOOOOOOOOoOoOOOOOOOOOOOOX",
"XOOOOOOOOOOOOOOOoOoOOOOOOOOOOoOoXOOOOOOOOOOOOOOOOOOOOOOOOOOOOOOX",
"XOOOOOOOOOOOOOOOOOOOOOOOOOOOOOOXXOOOOOoOoOOOOOOOOOOOOOOOOOOOOOOX",
"XOOOOoOoOOOOOOOOOOOOOOOOOOOOOOOXXOOOOOOoOOOOOOOOOOOOOOOOOOOOOOOX",
"XOOOOOoOOOOOOOOOOOOOOOOOOOOOOOOXXOOOOOoOoOOOOOOOOOOOOOOOOOOOOOOX",
"XOOOOoOoOOOOOOOOOOOOOOOOOOOOOOOXXOOOOOOOOOOOOOOOOOOOOOOOOOOOOOOX",
"XOOOOOOOOOOO.OOOOOOOOOOXoOoOOOOXXOOOOOOOOOOOOOOOOO.OOOOoOoOOOOOX",
"XOOOOOOOOOOO.OOOOOOOOOOXOo  OOOXXOO  OOOOXOOOOOOOO.OOOOOoOOOOOOX",
"XOOOOOOOOOOO..OOOOOOOOOXo o.  OXX  ..  OOXXOOOOOO..OOOOoOoOOOOOX",
"XOOOOOOOOOOO....OOOOOOO ......   ...... OOOoOoO....OOOOOOOOOOOOX",
"XOOOOOOOOOOO.....O OOO ........ ........ OXOoO.....OOOOOOOOOOOOX",
"XOOOOOOOOOOO.o.o..    ........   ........  o o....OOOOOOOOOOOOOX",
"XOOOOOOOOOOOO.o.... ........  OXX  ........ ......OOOOOOOOOOOOOX",
"XOOOOOOOOOOOOo.o...   .....  .....  .....   .....OOOOOOOOOOOOOOX",
"XOOOOOOOOOOOOO........     .........     ........OOOOOOOOOOOOOOX",
"XXXXXXXXXXXXXX..................................XXXXXXXXXXXXXXXX",
"XXXXXXXXXXXXXX.................o.o..............XXXXXXXXXXXXXXXX",
"XOOOOOOOOOOOOOO.................o...............OOOOOOOOOOOOOOOX",
"XOOOOOOOOOOOOOO................o.o.............OOOOOOOOOOOOOOOOX",
"XOOOOOOOOOOOOOOO...............................OOOOOOOOOOOOOOOOX",
"XOOOOOOOOOOOOOOO..............................OOOoOoOOOOOOOOOOOX",
"XOOOOOOOOoOoOOOOO.............................OOOOoOOOOOOOOOOOOX",
"XOOOOOOOOOoOOOOOO.......................o.o..OOOOoOoOOOOOOOOOOOX",
"XOOOOOOOOoOoOOOOOO.......................o...OOOOOOOOOOOOOOOOOOX",
"XOOOOOOOOOOOOOOOOOO.....................o.o.OOOOOOOOOOOOOOOOOOOX",
"XOOOOOOOOOOOOOOOOOOO...o.o.................OOOOOOOOOOOOOOOOOOOOX",
"XOOOOOOOOOOOOOOOOOOOO...o.................OOOOOOOOOOOOOOOOOOOOOX",
"XXXXOOOOOOOOOOOOOOOOOOOo.o...............OOOOOOOOOOOOOOOOOOOOOOX",
"XOOOXXXOXXXOOOOOOOOOOOOO................OOOOOOOOOOOOOOOOOOOOOOOX",
"XOOOOOOXXOOOOOOOOOOOOOOOOO............OOOOOOOOOOOOOOOOOOOOOOOOOX",
"XOOOOOOOOOOOOOOOOOOOOOOOOOOO........OOXXOOOOOOOOOOoOoOOOOOOOOOOX",
"XOOOOOOOOOOOOOOOOoOoOOOOOOOOOOOXXOOOOOOXXXXXOOOOOOOoOOOOOOOOOOOX",
"XOOOOOOOOOOOOOOOOOoOOOOOOOOOOOOXXOOOOOOOOOOXXOOOOOoOoOOOOOOOOOOX",
"XOOOOOOOOOOOOOOOOoOoOOOOOOOOOOOXXOOoOoOOOOOOOOOOOOOOOOOOOOOOOOOX",
"XOOOOOOOOOOOOOOOOOOOOOOOOOOOOOOXXOOOoOOOOOOOOOOOOOOOOOOOOOOOOOOX",
"XOOOOOOOOOOOOOOOOOOOOOOOOOOOOOOXXOOoOoOOOOOOOOOOOOOOOOOOOOOOOOOX",
"XOOOOOOOOOOOOOOOOOOOOOOOOOOOOOOXXOOOOOOOOOOOOOOOOOOOOOOOOOOOOOOX",
"XOOOOOOOOOOOOOOOOOOOOOOOOOOOOOOXXOOOOOOOOOOOOOOOOOOOOOOOOOOOOOOX",
"XOOOOOOOOOOOOOOOOOOOOOOOOOOOOOOXXOOOOOOOOOOOOOOOOOOOOOOOOOOOOOOX",
"XOOOOOOOOOOOOOOOOOOXXOOOOOOOOOOXXOOOOOOOOOOOOOOOOOOOOOOOOOOXXXXX",
"XOOOOOOOOOOOOOOOOOOOXOOOOOOOOOOXXOOOOOOOOOOOOOOOOOOOOOOOOXXOOOOX",
"XOOOOOOOOOOOOOOOOOOOXOOOOOOOOOOXXOOOOOOOOOOOOOOOOOOOOOOXXXOOOOOX",
"XOOOOOOOOOOOOOOOOOOOXOOOOOOOOOOXXOOOOOOOOOOOOOOOOOOOOOOOOOOOOOOX",
"XOOOOOOOOOOOOOOOOOOOXXOOOOOOOOOXXOOOOOOOOOOOOOOOOOOOOOOOOOOOOOOX",
"XOOOOOOOOOOOOOOOOOOOOXXOOOOOOOOXXOOOOOOOOOOOOOOOOOOOOOOOOOOOOOOX",
"XOOOOOOOOOOOOOOOOOOOOOXOOOOOOOOXXOOOOOOOOOOOOOOOOOOOOOOOOOOOOOOX",
"XOOOOOOOOOOOOOOOOOOOOOXOOOOOOOOXXOOOOOOOOOOOOOOOOOOOOOOOOOOOOOOX",
"XXXXXXXXXXXXXXXXXXXXXXXXXXXXXXXXXXXXXXXXXXXXXXXXXXXXXXXXXXXXXXXX"
};
