/* XPM */
static char *result[] = {
/* columns rows colors chars-per-pixel */
"64 64 62 1 ",
"  c #000000",
". c #281E00",
"X c #7E5F04",
"o c #7F6001",
"O c #7B620B",
"+ c #7B6313",
"@ c #76601D",
"# c #79631A",
"$ c #6E633C",
"% c #6F6642",
"& c #69654E",
"* c #686659",
"= c #666666",
"- c #805F00",
"; c #826305",
": c #83660B",
"> c #85690E",
", c #866A13",
"< c #886D16",
"1 c #876D18",
"2 c #8A6E1A",
"3 c #89711D",
"4 c #866F20",
"5 c #8C7423",
"6 c #8E762A",
"7 c #8E7A2A",
"8 c #90762A",
"9 c #917A2E",
"0 c #927D34",
"q c #957F3A",
"w c #96803D",
"e c #98813B",
"r c #998745",
"t c #9C8B4D",
"y c #9E8C51",
"u c #9F9058",
"i c #A09057",
"p c #A3925C",
"a c #A59462",
"s c #A79D6E",
"d c #A89C68",
"f c #A79D71",
"g c #A99F74",
"h c #ACA076",
"j c #ADA37B",
"k c blue",
"l c #AFA682",
"z c #B0A682",
"x c #B1A886",
"c c #B4AA8B",
"v c #B3AF92",
"b c #B9B59B",
"n c #BFBDAD",
"m c #C0BDAD",
"M c #C1BFB2",
"N c #C2C0B3",
"B c #C6C5BD",
"V c #C6C6C3",
"C c #C8C7C3",
"Z c #C9C9C5",
"A c #CCCCCC",
"S c #FFFFFF",
/* pixels */
"================================================================",
"=AAAAAAAAAAAAAAAAAAAAAAAAAAAAAA==AAAAAAAAAAAAAAAAAAA==AAAAAAAAA=",
"=AAAAAAAAAAAAAAAAAAAAAAAAAAAAAA==AAAAAAAAAAAAAAAAAA==AAAAAAAAAA=",
"=AAAAAAAAAAAAAAAAAAAAAAAAAAAAAA==AAAAAAAAAAAAAAAAA==AAAAAAAAAAA=",
"=AAAAAAAAAAAAAAAAAAAAAAAAAAAAAA==AAAAAAAAAAAAAAAA==AAAAAAAAAAAA=",
"=AAAAAAAAAAAAAAAAAAAAAAAAAAAAAA==AAAAAAAAAAAAAAAA=AAAAAAAAAAAAA=",
"=AAAAAAAAAAAAAAAAAAAAAAAAAAAAAA==AAAAAAAAAAAAAAA==AAAAAAAAAAAAA=",
"=AAAAAAAAAAAAAAAAAAAAAAAAAAAAAA==AAAAAAAAAAAAAAA=AAAAAAAAAAAAAA=",
"=AAAAAAAAAAAAAAAAAAAAAAAAAAAAAA==AAAAAAAAAAAAAAA=AAAAAAAAAAAAAA=",
"==AAAAAAAAAAAAAAAAAAAAAAAAAAAAA==AAA;AAAAAAAAAAAAAAAAAAAAAAAAAA=",
"===AAAAAAAAAAAAAAAAAAAAAAAAAAAA==AA;AAAAAAAAAAAAAAAAAAAAAAAAAAA=",
"=A=AAAAAAAAAAAAAAAAAAAAAAAAAAAA==AA-AAAAAAAAAAAAAAAAAAAAAAAAAAA=",
"=A==AAAAAAAAAAAAAAAAAAAAAAAAAAA==AAXAAAAAAAAAAAAAAAAAAAAAAAAAAA=",
"=AA=====AAAAAAAAAAAAAAAAAAAAAAA==AA;AAAAAXAAAAAAAAAAAAAAAAAAAAA=",
"=AAAAAA=AAAAAAAAAAAAAXoooAAAAAA==AAXAAAXX-AAAAXAAAAAAAAAAAAAAAA=",
"=AAAAAAAAAAAAAAAAAAAAAAAAoAAAAA==AoAAA-AAAAA;X-AAAAAAAAAAAAAAAA=",
"=AAAAAAAAAAAAAAAAAAAAAAAAAoo      o  o AAAAAoAAAAAAAAAAAAAAAAAA=",
"=AAAAAAAAAAAAAAAAA;;XAAAA  SoSSS XoSSoS  AAXoAAAAAAAAAAAAAAAAAA=",
"=AAAAAAAAAAAAAAAAAAAAXX  SSSSS SSSSSoSSSS  oAAAAAAAAAAAAAAAAAAA=",
"=AAAAAAAAAAAAAAAAAAAAAX;S SS SSSSS SoSS SSSoAAAAAAAAAAAAAAAAAAA=",
"=AAAAAAAAAAAAAAAAkkkk SooSSSSSSSSSSSSSSSSooS kAAAAAAAAAAAAAAAAA=",
"=AAAAAAAAAAAAAAAAAkkkkkSSSSSSSSSSSSSSSSSSSSkk AAAAAAAAAAAAAAAAA=",
"=AAAAAAAAAAAAAAAAAkkkkkkkS    SSSSSSSSS   kkkkkkAAAAAAAAAAAAAAA=",
"=AAAAAAAAAAAAAAkkkkkkkkkS  SSSSSSSSSSSSSS  kkkkkkAAAAAAAAAAAAAA=",
"=AAAAAAAAAAAAAAkkkkkkkkk      SSSSSSSSS   kkkkkkkkkAAAAAAAAAAAA=",
"=AAAAAAAAAAAAAAAAA kkkk        SSSSSS       kSkkkkAAAAAAAAAAAAA=",
"=AAAAAAAAAAAAAAAAkkkkkk      S  SSSS  S     SSSS kkAAAAAAAAAAAA=",
"=AAAAAAAAAAAAAAkkkkSSSSk SS  SS SSSS SS  SS SSSS AkAAAAAAAAAAAA=",
"=AAAAAAAAAAAAAkkAkSSSSSkkkk   kkSSSSkkk   kkSSSS AAAAAAAAAAAAAA=",
"=AAAAAAAAAAAAAkkA SSSSSSkkkkkkkkSSSSkkkkkkkkSSSS AAAAAAAAAAAAAA=",
"=AAAAAAAAAAAAkkAA SSSSSSkkkkkkkSSSSSSkkkkkkSSSSS AAAAAAAAAAAAAA=",
"=============k=== SSSSSSSSSSkkkSSSSSSSSkSSkSSSSS ===============",
"=============k=== SSSSSSSSSSkkSSSSSSSSSkSSkSSSSS ===============",
"=AAAAAAAAAAAAAAAA SSSSSSSSSSkSSSSSSSSSSkSSSSSSSS AAAAAAAAAAAAAA=",
"=AAAAAAAAAAAAAAAA SSSSSSSSSSkSSSSSSSSSSkSSSSSSSS AAAAAAAAAAAAAA=",
"=AAAAAAAAAAAAAAAA SSSSSSSSSSkSSSSSSSSSSSSSSSSSSS AAAAAAAAAAAAAA=",
"=AAAAAAAAAAAAAAAA SSSSSSSSSSS          SSSSSSSSS AAAAAAAAAAAAAA=",
"=AAAAAAAAAAAAAAAA SSSSSSSSS            SSSSSSSSS AAAAAAAAAAAAAA=",
"=AAAAAAAAAAAAAAAAA SSSS SSS             SSSSS S AAAAAAAAAAAAAAA=",
"=AAAAAAAAAAAAAAAAA S SSSSS              SS SSSS AAAAAAAAAAAAAAA=",
"=AAAAAAAAAAAAAAAAAA SS SSS              SSS SS AAAAAAAAAAAAAAAA=",
"=AAAAAAAAAAAAAAAAAA SSSSSS             SS SSSS AAAAAAAAAAAAAAAA=",
"=AAAAAAAAAAAAAZyqcte.SS SSS      SSSSSSSSSSSS AAAAAAAAAAAAAAAAA=",
"====AAAAAAAAAAx6q02eC SSS SSSSSSSSS SSS SS S AAAAAAAAAAAAAAAAAA=",
"=AAA===A===AAAAAg0t0hy.SSSSSSS SSSSSSSSSSSS AAAAAAAAAAAAAAAAAAA=",
"=AAAAAA==AAAAAZycz52i2x  SSS SSSSSSS SSSS  ZycAAAAAAAAAAAAAAAAA=",
"=AAAAAAAAAAAAAzw3855s<hAA  SSSSSS SSSSS  yc06tcAAAAAAAAAAAAAAAA=",
"=AAAAAAAAAAAAAA5;:;pf19<aZy.           =%@+>5:aAAAAAAAAAAAAAAAA=",
"=AAAAAAAAAAAAAz24:,ru>;:Cz<0cte+#xyxycycy5::X;0cAAAAAAAAAAAAAAA=",
"=AAAAAAAAAAAAAj;,yy,52<gv,;20:5+o13j1y:wwj:8z50ZAAAAAAAAAAAAAAA=",
"=AAAAAAAAAAAAAwod0l5;70r3;-::;yOo,n,:<;8q5,gmyjNAAAAAAAAAAAAAAA=",
"=AAAAAAAAAAAZycVqcMq;8p5q>-:,><;#0<;2563>;;yq8ZAAAAAAAAAAAAAAAA=",
"=AAAAAAAAAAAl3cxqCyp68M50<3o30:OO:3<500y:o;tqAMAAAAAAAAAAAAAAAA=",
"=AAAAAAAAAAAxwnAAg2cAm5:j5Oo;pyOo>t555<i556bANAAAAAAAAAAAAAAAAA=",
"=AAAAAAAAAAAAANAAxwmAzwVrp51oe<OX0rcn05nZrjNAAAAAAAAAAAAAAAAAAA=",
"=AAAAAAAAAAAAAAAAAA*=AAgqZArO3>O$h0Zxwtjq8BycAAAAAAAAAAAAAA=====",
"=AAAAAAAAAAAAAAAAAAA=AAAAMAz6;2#=ZyjAxqzwt58ZAAAAAAAAAAAA==AAAA=",
"=AAAAAAAAAAAAAAAAAAA=AAAAAAAu:m&*zwZAAAMx6qCNAAAAAAAAAA===AAAAA=",
"=AAAAAAAAAAAAAAAAAAA=AAAAAAAAAb==AANAAAAAANNAAAAAAAAAAAAAAAAAAA=",
"=AAAAAAAAAAAAAAAAAAA==AAAAAAAAA==AAAAAAAAAAAAAAAAAAAAAAAAAAAAAA=",
"=AAAAAAAAAAAAAAAAAAAA==AAAAAAAA==AAAAAAAAAAAAAAAAAAAAAAAAAAAAAA=",
"=AAAAAAAAAAAAAAAAAAAAA=AAAAAAAA==AAAAAAAAAAAAAAAAAAAAAAAAAAAAAA=",
"=AAAAAAAAAAAAAAAAAAAAA=AAAAAAAA==AAAAAAAAAAAAAAAAAAAAAAAAAAAAAA=",
"================================================================"
};
