/* XPM */
static char *result[] = {
/* columns rows colors chars-per-pixel */
"64 64 8 1 ",
"  c black",
". c #6C5303",
"X c #7F6000",
"o c gray40",
"O c #FFF200",
"+ c #A4A0A0",
"@ c gray80",
"# c white",
/* pixels */
"oooooooooooooooooooooooooooooooooooooooooooooooooooooooooooooooo",
"o@@@@@@@@@@@@@@@@@@@@@@@@@@@@@@oo@@@@@@@@@@@@@@@@@@@oo@@@@@@@@@o",
"o@@@@@@@@@@@@@@@@@@@@@@@@@@@@@@oo@@@@@@@@@@@@@@@@@@oo@@@@@@@@@@o",
"o@@@@@@@@@@@@@@@@@@@@@@@@@@@@@@oo@@@@@@@@@@@@@@@@@oo@@@@@@@@@@@o",
"o@@@@@@@@@@@@@@@@@@@@@@@@@@@@@@oo@@@@@@@@@@@@@@@@oo@@@@@@@@@@@@o",
"o@@@@@O@O@@@@@@@@@@@@@@@@@@@@O@Oo@@@@@@@@@@@@@@@@o@@@@@@@O@O@@@o",
"o@@@@@@O@@@@@@@@@@@@@@@@@@@@@@Ooo@@@@@@@@@@@@@@@oo@@@@@@@@O@@@@o",
"o@@@@@@@O@@@@@@@@@@@@@@@@@@@@O@Oo@@@@@@@@@@@@@@@o@@@@@@@@O@O@@@o",
"o@@@@@@@@@@@@@@@@@@@@@@@@@@@@@@oo@@@@@@@@@@@@@@@o@@@@@@@@@@@@@@o",
"oo@@@@@@@@@@@@@@@@@@@@@@@@@@@@@oo@@@@@@@@@@@@@@@@@@@@@@@@@@@@@@o",
"ooo@@@@@@@@@@@@@@@@@@@@@@@@@@@@oo@@@@@@@@@O@O@@@@@@@@@@@@@@@@@@o",
"o@o@@@@@@@@@@@@@@@@@@@@@@@@@@@@oo@@@@@@@@@@O@@@@@@@@@@@@@@@@@@@o",
"o@oo@@@@@@@@@@@@@@@@@@@@@@@@@@@oo@@@@@@@@@O@O@@@@@@@@@@@@@@@@@@o",
"o@@ooooo   @@@@@@@@@O@O@@@@@@@@oo@@@@@@@@@@@@@@@@@@@@   @@@@@@@o",
"o@@@@@   ##   @@@@@@@O@@@@@@@@@oo@@@@@@@@@@@@@@@@@   ##   @@@@@o",
"o@@@@@ ######   @@@@O@O@@@@@@XX.XO.O@@@@@@@@@@@@   ###### @@@@@o",
"o@@@@@ #########  @@@@@@@@ X.X.XX.OX. @@@@@@@@  ######### @@@@@o",
"o@@@@@@  ######### @@@@@  X.XX.XXOXOXX  @@@@@ #########  @@@@@@o",
"o@@@@@@@    ####### @@  ##X.X.XX.XX.X.##  @@ #######    @@@@@@@o",
"o@@@@@@@      #####   ####..X.XX.XX...####   #####      @@@@@@@o",
"o@@@@@@  ####  ##### ######...X..X...###### #####  ####  @@@@@@o",
"o@@@@@@  ########## #########......####O#O## ##########  @@@@@@o",
"o@@@@@@@   ####### #####################O#### #######   @@@@@@@o",
"o@@@@@@@@@@   O#O# ####################O#O### ####   @@@@@@@@@@o",
"o@@@@@@@@@@@ ##O# ############################ #### @@@@@@@@@@@o",
"o@@@@@@@@@@@  O O ############################# O O @@@@@@@@@@@o",
"o@@@@@@@@@@@@@@@ ############################## @O@@@@@@@@@@@@@o",
"o@@@@@@@@@@@@@           O O                    O@O@@@@@@@@@@@@o",
"o@@@@@@@@@@@@@            O   ###                @@@@@@@@@@@@@@o",
"o@@@O@O@@@@@@@@  + +     O O #####  + +         @@@@@@@@@@@@@@@o",
"o@@@@O@@@@@@@@@@  + +       #######  + +        @@@@@@@@@@@@@@@o",
"ooooOoOooooooooo   + +     #########  + +     # oooooooooooooooo",
"oooooooooooooooo #        ###########        ## oooooooooooooooo",
"o@@@@@@@@@@@@@@@ #########  #######  ########## @@@@@@O@O@@@@@@o",
"o@@@@@@@@@@@@@@@ #######  XX  ###  XX  ######## @@@@@@@O@@@@@@@o",
"o@@@@@@@@@@@@@@  ###### XXXXXX   XXXXXX #######  @@@@@O@O@@@@@@o",
"o@@@@@@@@@@@@O@OX# ### XXXXXXXX XXXXXXXX ### ##X @@@@@@@@@@@@@@o",
"o@@@@@@@@@@@@@O X#    XXXXXX..   ..XXXXXX    ##X @@@@@@@@@@@@@@o",
"o@@@@@@@@@@@@O OXX# ...XXXX.  ###  .XXXXX.. ##XX  @@@@@@@@@@@@@o",
"o@@@@@@@@@@@@@ @XX#   .....  #####  .....   ##X.@ @@@@@@@@@@@@@o",
"o@@@@@@@@@@@@@ @.XX###     #########     ###XXX.@ @@@@@@@@@@@@@o",
"o@@@@@@@@@@@@@ @.XXX#######################XXXX.@ @@@@@@@@@@@@@o",
"o@@@@@@@@@@@@@ @..XXXX#######XXXXX#######XXXXO.O@ @@@@@@@@@@@@@o",
"oooo@@@@@@@@@@ @...XXXXX###XXXXXXXXX###XXXXXX.O.@ @@@@@@@@@@@@@o",
"o@@@ooo@ooo@@@ @@...XXXXXXXXXXXXXXXXXXXXXXXX.O.O@ @@@@@@@@@@@@@o",
"o@@@@@@oo@@@@@ @@@...XXXXXXXXXXXXXXXXXXXXXX...@@@ @@@@@@@@@@@@@o",
"o@@@@@@@@@@@@@ @@@@...XXXXXXXOXOXXXXXXXXXX...@@@@ @@@@@@@@@@@@@o",
"o@@@@@@@@@@@@  @@@@@....XXXXXXOXXXXXXXXX....@@@@@  @@@@@@@@@@@@o",
"o@@@@@@@@@@@@ @@@@@@@.....XXXOXOXXXXXX.....oo@@@@@ @@@@@@@@@@@@o",
"o@@@@@@@@@@@@ @@@@O@O@@......XXXXXX......@@@@@@@@@ @@@@@@@@@@@@o",
"o@@@@@@@@@@@@ @@@@@O@@@@@@............@@@@@@@@@@@@ @@@@@@@O@O@@o",
"o@@@@@@@@@@@@ @@@@O@O@@@@@@@........@@@@@@@@@@@@@@ @@@@@@@@O@@@o",
"o@@@@@@@      @@@@@@@@@@@@@@@@@oo@@@@@@@@@@@@@@@@@      @@O@O@@o",
"o@@@@@@@ ###  @@@@@@@@@@@@@@@@@oo@@@@@@@@@@@@@@@@@  ### @@@@@@@o",
"o@@@O@O@  ### @@@@@@@@@@@@@@@@@oo@@@@@@@@O@O@@@@@@ ###  @@@@@@@o",
"o@@@@O@@@   # @@@@@oo@@@@@@@@@@oo@@@@@@@@@O@@@@@@@ #   @@@@ooooo",
"o@@@O@O@@@@   @@@@@@o@@@@@@@@@@oo@@@@@@@@O@O@@@@@@   @@@@oo@@@@o",
"o@@@@@@@@@@@@@@@@@@@o@@@@@@@@@@oo@@@@@@@@@@@@@@@@@@@@@@ooo@@@@@o",
"o@@@@@@@@@@@@@@@@@@@o@@@@O@O@@@oo@@@@@@@@@@@@@@@@@@@@@@@@@@@@@@o",
"o@@@@@@@@@@@@@@@@@@@oo@@@@O@@@@oo@@@@@@@@@@@@@@@@@@@@@@@@@@@@@@o",
"o@@@@@@@@@@@@@@@@@@@@oo@@O@O@@@oo@@@@@@@@@@@@@@@@@@@@@@@@@@@@@@o",
"o@@@@@@@@@@@@@@@@@@@@@o@@@@@@@@oo@@@@@@@@@@@@@@@@@@@@@@@@@@@@@@o",
"o@@@@@@@@@@@@@@@@@@@@@o@@@@@@@@oo@@@@@@@@@@@@@@@@@@@@@@@@@@@@@@o",
"oooooooooooooooooooooooooooooooooooooooooooooooooooooooooooooooo"
};
