/* XPM */
static char *result[] = {
/* columns rows colors chars-per-pixel */
"64 64 7 1 ",
"  c black",
". c #6C5303",
"X c #7F6000",
"o c gray40",
"O c #FFF200",
"+ c gray80",
"@ c white",
/* pixels */
"oooooooooooooooooooooooooooooooooooooooooooooooooooooooooooooooo",
"o++++++++++++++++++++++++++++++oo+++++++++++++++++++oo+++++++++o",
"o++++++++++++++++++++++++++++++oo++++++++++++++++++oo++++++++++o",
"o++++++++++++++++++++++++++++++oo+++++++++++++++++oo+++++++++++o",
"o++++++++++++++++++++++++++++++oo++++++++++++++++oo++++++++++++o",
"o+++O+O++++++++++++++++++++++++oO+O++++++++++++++o+++++O+O+++++o",
"o++++O+++++++++++++++++++++++++ooO++++++++++++++oo++++++O++++++o",
"o+++O+O++++++++++++++++++++++++oO+O+++++++++++++o++++++O+O+++++o",
"o++++++++++++++++++++++++++++++oo+++++++++++++++o++++++++++++++o",
"oo+++++++++++++++++++++++++++++oo++++++++++++++++++++++++++++++o",
"ooo++++++++++++++++O+O+++++++++oo++++++++++++++++++++++++++++++o",
"o+o+++++++++++++++++O++++++++++oo++++++++++++++++++++++++++++++o",
"o+oo+++++++++++++++O+O+++++++++oo++++++++++++++++++++++++++++++o",
"o++ooooo   ++++++++++++++++++++oo++++++++O+O+++++++++   +++++++o",
"o+++++   @@   +++++++++++++++++oo+++++++++O+++++++   @@   +++++o",
"o+++++ @@@@@@   ++++++++++++.X.XX.X.+++++O+O++++   @@@@@@ +++++o",
"o+++++ @@@@O@O@@  ++++++++ X.XX.X.XX. ++++++++  @@@@@@@@@ +++++o",
"o++++++  @@@O@@@@@ +++++  .XX.X.XX.X.X  +++++ @@@@@@@@@  ++++++o",
"o+++++++   O@O@@@@@ ++  @@X.X.XX.X.X.X@@  ++ @@@@@@@    +++++++o",
"o+++++++      @@@@@   @@@@X.XX.X.X.X.X@@@@   @@@@@      +++++++o",
"o++++++  @@@@  @@@@@ @@@@@@XOXOX.X.XX@@@@@@ @@@@@  @@@@  ++++++o",
"o++++++  @@@@@@@@@@@@ @@@@@X.O.X.XX.X@@@@@ @@@@@@@O@O@@  ++++++o",
"o+++++++   @@@@@@@@@@@ @@@@XOXOXX.XX.@@@@ @@@@@@@@@O@   +++++++o",
"o++++++++++   @@@@@@@@  @@@X.XX.XX.X.@@@  @@@@@@@@O O++++++++++o",
"o+++++++++++ @@@@@@@@@@  @@@X.XX.X.X@@@  @@@@@@@@@@ +++++++++++o",
"o+++++++++++       @@@@@ @@@XX.X.X.X@@@ @@@@@       +++++++++++o",
"o+++++++++++++O+ @     @ @@@@X.X.XX.@@@ @     @ +++++++++++++++o",
"o++++++++++++O+  @@@@@   @@@@@.XX.X@@@@   @@@@@   +++++++++++++o",
"o++++++++++++++  @@@@@@@@@@@@@X.X..@@@@@@@@@O@O   +++++++++++++o",
"o+++++++++++++++ @@@@@@@@@@@@@@.XX@@@@@@@@@@@O@  ++++++++O+O+++o",
"o+++++++++++++++ @@@@@@@@@@@@@@   @@@@@@@@@@O@O ++++++++++O++++o",
"oooooooooooooooo @@@@@@@@@@@@@@..X@@@@@@@@@@@@@ oooooooooOoOoooo",
"oooooooooooooooo @@@@O@O@@@@@@..X.X@@@@@@@@@@@@ oooooooooooooooo",
"o++++++O+O++++++ @@@@@O@@@@@@@.XX.X@@@@@@@@@@@@ +++++++++++++++o",
"o+++++++O+++++++ @@@@O@O@@@@@@.X.XX@@@@@@@@@@@@ +O+++++++++++++o",
"o++++++O+O+++++  @@@@@@@@@@@@@.X.X.@@@@@@@@@@@@  ++++++++++++++o",
"o++++++++++++++  @@@@@@@@@@@@@@.X.@@@@@@@@@@@@@  O+++++++++++++o",
"o+++++++++++++    @@@@@@@@@@@@@.X.@@@@@@@@@@@@@  ++++++++++++++o",
"o+++++++++++++ +X @@@@@@@@@@@@..X@@@@@@@@@@@@@    +++++++++++++o",
"o+++++++++++++ +XX @@@@@@@@@@@@@@@@@@@@@@@@@@  .+ +++++++++++++o",
"o+++++++++++++ +.X  @@@@@@@@@@@@@@@@@O@O@@@@  X.+ +++++++++++++o",
"o+++++++++++++ +.XX  @@@@@@@@@@@ @@@@@O@@@@  X..+ +++++++++++++o",
"o+++++++++++++ +..XX   @@@@@@@@@ @@@@O@O@   XX..+ +++++++++++++o",
"oooo++++++++++ +...XXX   @@@@@@@ @@@@@@@  XXX...+ +++++++++++++o",
"o+++ooo+ooo+++ +O...XXXX O@O@@@   @@@@@  XXX...++ +++++++++++++o",
"o++++++oo+++++ +++...XXXXXO    XXX     XXXX...+++ +++++++++++++o",
"o+++++++++++++ ++++...XXXOXOXXXXXXXXXXXXXX...++++ +++++++++++++o",
"o++++++++++++  +++++....XXXXXXXXXXXXXXXX....+++++  ++++++++++++o",
"o++++++++++++ +++++++.....XXXXXXXXXXXX.....oo+++++ ++++++++++++o",
"o++++++++++++ +++++++++......XXXXXX......++O+O++++ ++++++++++++o",
"o++O+O+++++++ ++++++++++++............++++++O+++++ ++++++++++++o",
"o+++O++++++++ ++++++++++++++........+++++++O+O++++ ++++++++++++o",
"o++O+O++      +++++++++++++++++oo+++++++++++++++++      +++++++o",
"o+++++++ @@@  +++++++++++++++++oo+++++++++++++++++  @@@ +++++++o",
"o+++++++  @@@ +++++++O+O+++++++oo+++++++++++++++++ @@@  +O+O+++o",
"o++++++++   @ +++++oo+O++++++++oo+++++++++++++++++ @   +++Oooooo",
"o++++++++++   ++++++oO+O+++++++oo+++++++++++++++++   ++++OoO+++o",
"o+++++++++++++++++++o++++++++++oo++++++++++++++++++++++ooo+++++o",
"o+++++++++++++++++++o++++++++++oo+++O+O++++++++++++++++++++++++o",
"o+++++++++++++++++++oo+++++++++oo++++O+++++++++++++++++++++++++o",
"o++++++++++++++++++++oo++++++++oo+++O+O++++++++++++++++++++++++o",
"o+++++++++++++++++++++o++++++++oo++++++++++++++++++++++++++++++o",
"o+++++++++++++++++++++o++++++++oo++++++++++++++++++++++++++++++o",
"oooooooooooooooooooooooooooooooooooooooooooooooooooooooooooooooo"
};
