/* XPM */
static char *result[] = {
/* columns rows colors chars-per-pixel */
"64 64 5 1 ",
"  c black",
". c gray40",
"X c #ED1C24",
"o c gray80",
"O c white",
/* pixels */
"................................................................",
".oooooooooooooooooooooooooooooo..ooooooooooooooooooo..ooooooooo.",
".oooooooooooooooooooooooooooooo..oooooooooooooooooo..oooooooooo.",
".oooooooooooooooooooooooooooooo..ooooooooooooooooo..ooooooooooo.",
".oooooooooooooooooooooooooooooo..oooooooooooooooo..oooooooooooo.",
".oooooooooooooooooooooooooooooo..oooooooooooooooo.ooooooooooooo.",
".oooooooooooooooooo    oooooooo..ooooooo    oooo..ooooooooooooo.",
".oooooooooooooooo  XXX  ooooooo..oooooo  XXX  oo.oooooooooooooo.",
".ooooooooooooooo XXXXXX  oooooo..ooooo  XXXXXX o.oooooooooooooo.",
"..ooooooooooooo  XXXXXXX  ooooo..oooo  XXXXXXX  ooooooooooooooo.",
"...oooooooooooo XXX    XXX oooo..ooo XXX    XXX ooooooooooooooo.",
".o.oooooooooooo XX ooo  XX  ooo..oo  XX  ooo XX ooooooooooooooo.",
".o..ooooooooooo XX oooo  XX ooo..oo XX  oooo XX ooooooooooooooo.",
".oo.....ooooooo XX ooooo  XX oo..o XX  ooooo XX ooooooooooooooo.",
".oooooo.ooooooo XX oooooo  X oo..o X  oooooo XX ooooooooooooooo.",
".oooooooooooooo XX  oooooo XX o.. XX oooooo  XX ooooooooooooooo.",
".oooooooooooooo  XX oooooo XX o.. XX oooooo XX  ooooooooooooooo.",
".ooooooooooooooo XX  oooooo X  .  X oooooo  XX oooooooooooooooo.",
".oooooooooooooooo XX  ooooo XX . XX ooooo  XX ooooooooooooooooo.",
".ooooooooooooooooo XX   ooo  X . X  ooo   XX oooooooooooooooooo.",
".ooooooooooooooooo  XXX  ooo X . X ooo  XXX  oooooooooooooooooo.",
".ooooooooooooooooooo  XXX    X . X    XXX  oooooooooooooooooooo.",
".ooooooooooooooooooooo  XXXXXX   XXXXXX  oooooooooooooooooooooo.",
".oooooooooooooooooooo.o   XXX     XXX   o.ooooooooooooooooooooo.",
".ooooooooooooooooooo..oooo           oooo..oooooooooooooooooooo.",
".oooooooooooooooooo.oooooooo       oooooooo.ooooooooooooooooooo.",
".ooooooooooooooooooo.ooooooo O   O ooooooo.oooooooooooooooooooo.",
".ooooooooooooooooooooooo..o  OO OO  oooooo..ooooooooooooooooooo.",
".oooooooooooooooooooooooo.  OO . OO oooooooo.oooooooooooooooooo.",
".oooooooooooooooooooooooo  OOO . OOO ooooooo.oooooooooooooooooo.",
".oooooooooooooooooooooooo OOO o.. OO  oooooo..ooooooooooooooooo.",
"........................  OOO ... OOO ..........................",
".......................  OOO ..... OOO .........................",
".oooooooooooooooooooooo OOO ooo..oo OO  ooooooooooooooooooooooo.",
".ooooooooooooooooooooo  OOO ooo..oo OOO  oooooooooooooooooooooo.",
".ooooooooooooooooooooo OOO oooo..ooo OOO  ooooooooooooooooooooo.",
".oooooooooooooooooooo  OO ooooo..ooo OOOO ooooooooooooooooooooo.",
".oooooooooooooooooooo OOO ooooo..oooo OOO  oooooooooooooooooooo.",
".ooooooooooooooooooo  OO oooooo..ooooo OOO oooooooooooooooooooo.",
".oooooooooooooooooo  OOO oooooo..ooooo OOO  ooooooooooooooooooo.",
".oooooooooooooooooo OOO ooooooo..oooooo OOO ooooooooooooooooooo.",
".ooooooooooooooooo  OO oooooooo....oooo OOO  oooooooooooooooooo.",
".ooooooooooooooooo OOO oooooooo..o...ooo OOO  ooooooooooooooooo.",
"....ooooooooooooo  OO ooooooooo..ooo.oooo OOO ooooooooooooooooo.",
".ooo...o...ooooo  OO oooooooooo..ooo.oooo OOO  oooooooooooooooo.",
".oooooo..ooooooo OOO oooooooooo..oooo.oooo OOO  ooooooooooooooo.",
".oooooooooooooo  OO ooooooooooo..ooooo..ooo OOO ooooooooooooooo.",
".oooooooooooooo OOO ooooooooooo..oooooo.... OOOO oooooooooooooo.",
".ooooooooooooo  OO oooooooooooo..oooooooooo. OOO  ooooooooooooo.",
".ooooooooooooo OO ooooooooooooo..ooooooooooo OOOO ooooooooooooo.",
".ooooooooooooo OO ooooooooooooo..oooooooooooo OOO ooooooooooooo.",
".ooooooooooooo O oooooooooooooo..ooooooooooooo OO ooooooooooooo.",
".ooooooooooooo  ooooooooooooooo..ooooooooooooo OO ooooooooooooo.",
".ooooooooooooo  ooooooooooooooo..oooooooooooooo O ooooooooooooo.",
".oooooooooooo  oooooooooooooooo..oooooooooooooo   ooooooooooooo.",
".oooooooooooo  oooo..oooooooooo..ooooooooooooooo oooooooooo.....",
".oooooooooooo oooooo.oooooooooo..oooooooooooooooooooooooo..oooo.",
".ooooooooooooooooooo.oooooooooo..oooooooooooooooooooooo...ooooo.",
".ooooooooooooooooooo.oooooooooo..oooooooooooooooooooooooooooooo.",
".ooooooooooooooooooo..ooooooooo..oooooooooooooooooooooooooooooo.",
".oooooooooooooooooooo..oooooooo..oooooooooooooooooooooooooooooo.",
".ooooooooooooooooooooo.oooooooo..oooooooooooooooooooooooooooooo.",
".ooooooooooooooooooooo.oooooooo..oooooooooooooooooooooooooooooo.",
"................................................................"
};
