/* XPM */
static char *result[] = {
/* columns rows colors chars-per-pixel */
"64 64 5 1 ",
"  c black",
". c gray40",
"X c #ED1C24",
"o c gray80",
"O c white",
/* pixels */
"................................................................",
".oooooooooooooooooooooooooooooo..ooooooooooooooooooo..ooooooooo.",
".ooooooooooooooooooooooo     oo..o     oooooooooooo..oooooooooo.",
".oooooooooooooooooooooo  XXX  o..  XXX  oooooooooo..ooooooooooo.",
".ooooooooooooooooooooo XXXXXXX . XXXXXXX oooooooo..oooooooooooo.",
".oooooooooooooooooooo  XXXXXXX . XXXXXXX  ooooooo.ooooooooooooo.",
".oooooooooooooooooooo XX   XXX . XXX   XX oooooo..ooooooooooooo.",
".ooooooooooooooooooo  XX oo  XX XX  oo XX  ooooo.oooooooooooooo.",
".ooooooooooooooooooo XX oooo XX XX oooo XX ooooo.oooooooooooooo.",
"..oooooooooooooooooo XX oooo  X X  oooo XX oooooooooooooooooooo.",
"...ooooooooooooooooo XX ooooo X X ooooo XX oooooooooooooooooooo.",
".o.ooooooooooooooooo XX ooooo X X ooooo XX oooooooooooooooooooo.",
".o..oooooooooooooooo XX ooooo X X ooooo XX oooooooooooooooooooo.",
".oo.....oooooooooooo XX ooooo X X ooooo XX oooooooooooooooooooo.",
".oooooo.oooooooooooo XX ooooo X X ooooo XX oooooooooooooooooooo.",
".oooooooooooooooooooo X ooooo X X ooooo X ooooooooooooooooooooo.",
".oooooooooooooooooooo XX oooo X X oooo XX ooooooooooooooooooooo.",
".oooooooooooooooooooo  XX ooo X X ooo XX  ooooooooooooooooooooo.",
".ooooooooooooooooooooo  X ooo X X ooo X  oooooooooooooooooooooo.",
".oooooooooooooooooooooo XX   XX XX   XX ooooooooooooooooooooooo.",
".oooooooooooooooooooooo  XXXXX . XXXXX  ooooooooooooooooooooooo.",
".ooooooooooooooooooooooo  XXXX   XXXX  oooooooooooooooooooooooo.",
".oooooooooooooooooooooooo  XX     XX  ooooooooooooooooooooooooo.",
".oooooooooooooooooooooo..o           oooo.ooooooooooooooooooooo.",
".oooooooooooooooooooooo.oooo       oooooo..oooooooooooooooooooo.",
".oooooooooooooooooooooo.ooooo     ooooooooo.ooooooooooooooooooo.",
".oooooooooooooooooooooo..oooo     oooooooo.oooooooooooooooooooo.",
".ooooooooooooooooooooooo..ooo O O oooooooo..ooooooooooooooooooo.",
".oooooooooooooooooooooooo.ooo O O oooooooooo.oooooooooooooooooo.",
".oooooooooooooooooooooooo.ooo O O oooooooooo.oooooooooooooooooo.",
".oooooooooooooooooooooooo.ooo O O oooooooooo..ooooooooooooooooo.",
"............................. O O ..............................",
"............................ OO OO .............................",
".ooooooooooooooooooooooooooo OO OO oooooooooooooooooooooooooooo.",
".ooooooooooooooooooooooooooo OO OO oooooooooooooooooooooooooooo.",
".ooooooooooooooooooooooooooo OO OO oooooooooooooooooooooooooooo.",
".ooooooooooooooooooooooooooo OO OO oooooooooooooooooooooooooooo.",
".ooooooooooooooooooooooooooo OO OO oooooooooooooooooooooooooooo.",
".ooooooooooooooooooooooooooo OO OO oooooooooooooooooooooooooooo.",
".ooooooooooooooooooooooooooo OO OO oooooooooooooooooooooooooooo.",
".ooooooooooooooooooooooooooo OO OO oooooooooooooooooooooooooooo.",
".ooooooooooooooooooooooooooo OO OO oooooooooooooooooooooooooooo.",
".ooooooooooooooooooooooooooo OO OO ..oooooooooooooooooooooooooo.",
"....oooooooooooooooooooooooo OO OO o.oooooooooooooooooooooooooo.",
".ooo...o...oooooooooooooooo OOO OOO .oooooooooooooooooooooooooo.",
".oooooo..oooooooooooooooooo OOO OOO o.ooooooooooooooooooooooooo.",
".oooooooooooooooooooooooooo OOO OOO oo..ooooooooooooooooooooooo.",
".oooooooooooooooooooooooooo OOO OOO ooo....oooooooooooooooooooo.",
".oooooooooooooooooooooooooo OOO OOO ooooooooooooooooooooooooooo.",
".oooooooooooooooooooooooooo OOO OOO ooooooooooooooooooooooooooo.",
".oooooooooooooooooooooooooo OOO OOO ooooooooooooooooooooooooooo.",
".oooooooooooooooooooooooooo OOO OOO ooooooooooooooooooooooooooo.",
".oooooooooooooooooooooooooo  OO OO  ooooooooooooooooooooooooooo.",
".ooooooooooooooooooooooooooo  O O  oooooooooooooooooooooooooooo.",
".oooooooooooooooooooooooooooo     ooooooooooooooooooooooooooooo.",
".oooooooooooooooooo..oooooooooo..oooooooooooooooooooooooooo.....",
".ooooooooooooooooooo.oooooooooo..oooooooooooooooooooooooo..oooo.",
".ooooooooooooooooooo.oooooooooo..oooooooooooooooooooooo...ooooo.",
".ooooooooooooooooooo.oooooooooo..oooooooooooooooooooooooooooooo.",
".ooooooooooooooooooo..ooooooooo..oooooooooooooooooooooooooooooo.",
".oooooooooooooooooooo..oooooooo..oooooooooooooooooooooooooooooo.",
".ooooooooooooooooooooo.oooooooo..oooooooooooooooooooooooooooooo.",
".ooooooooooooooooooooo.oooooooo..oooooooooooooooooooooooooooooo.",
"................................................................"
};
